<svg width="3869" height="900" viewBox="0 0 3869 900" fill="none" xmlns="http://www.w3.org/2000/svg">
<g clip-path="url(#clip0_70_3138)">
<path d="M616 729C620 596 701 519 814 516C827 516 852 526 852 503C852 482 827 486 811 485L777 484C742 484 710 476 699 438C688 400 698 364 730 338C822 263 1004 288 1046 436C1067 510 1055 582 1050 656C1047 691 1040 726 1033 761C1017 840 966 864 899 822C884 813 879 821 870 827C816 859 761 874 699 844C641 815 616 768 616 729ZM841 664C840 654 838 636 816 636C792 636 788 654 788 673C788 690 787 709 812 708C836 707 841 691 841 664ZM2643 661L2644 634C2648 565 2673 495 2732 455C2765 433 2805 422 2845 421C2859 421 2886 432 2886 407C2886 383 2859 388 2842 386L2806 385C2768 385 2735 375 2723 333C2712 290 2722 249 2756 220C2853 135 3047 164 3091 331C3113 414 3101 496 3095 579C3092 618 3085 658 3077 698C3061 786 3007 814 2935 766C2920 756 2914 765 2904 772C2847 808 2789 825 2724 791C2669 762 2645 717 2643 661ZM2874 588C2873 577 2871 556 2847 556C2822 556 2817 577 2817 598C2817 617 2817 638 2843 638C2869 637 2874 619 2874 588ZM1409 869C1385 870 1358 867 1334 865C1273 859 1206 852 1153 824C1110 801 1103 752 1103 712L1106 487C1107 437 1113 422 1120 376C1123 353 1140 333 1166 326C1240 306 1296 348 1305 417C1313 477 1295 502 1293 558C1293 582 1288 614 1289 643C1291 672 1317 681 1343 686C1384 694 1427 689 1468 689C1486 689 1506 688 1522 691C1538 695 1554 699 1560 715C1579 770 1559 830 1506 855C1476 869 1441 868 1409 869Z" fill="#353635"/>
<path d="M1722 207C1701 257 1670 265 1622 271C1604 273 1579 270 1564 284C1550 297 1551 317 1551 334C1550 371 1546 407 1543 444C1540 481 1541 520 1535 556C1527 605 1512 631 1454 630C1407 630 1381 599 1374 548C1370 513 1385 448 1385 440C1386 410 1401 329 1355 281C1331 257 1210 278 1178 271C1133 260 1124 219 1123 192C1119 127 1171 101 1219 96C1350 83 1477 88 1605 94C1660 96 1691 95 1717 142C1726 155 1727 195 1722 207ZM1929 751C1898 751 1868 750 1839 739C1829 735 1821 730 1817 720C1812 706 1818 696 1836 686C1845 681 1856 678 1866 674C1870 673 1874 671 1874 666C1873 662 1869 660 1865 660C1857 658 1848 656 1840 656L1824 652C1813 648 1809 642 1810 628C1811 617 1817 610 1827 608L1844 606C1887 603 1930 602 1972 609C1980 610 1987 612 1992 617C2003 627 2003 641 1993 651C1982 663 1967 668 1952 674C1944 678 1935 681 1927 686C1924 688 1920 691 1921 695C1923 699 1928 699 1931 699L1969 694H1975C1990 692 1999 698 2002 709C2006 726 2001 738 1988 744C1976 750 1964 750 1951 751H1929ZM1891 766C1921 766 1948 766 1974 774C1985 778 1996 783 1999 797C2002 808 1999 817 1989 823C1980 829 1969 831 1958 832C1919 834 1880 834 1841 827C1817 823 1806 800 1818 781C1822 773 1829 771 1836 769C1856 764 1875 766 1891 766ZM1992 281C1977.34 265.743 1957.96 255.877 1937 253C1908.29 247.831 1878.99 246.821 1850 250C1836 251 1828 255 1822 262C1817 267 1816 273 1817 278C1818 282 1822 286 1828 288C1835 291 1841 292 1848 292H1900C1918 292 1922 302 1923 308C1925 319 1920 327 1907 332C1899 335 1889 336 1879 336C1869.99 336.298 1860.97 335.964 1852 335C1843 335 1835 336 1826 340C1819 342 1816 346 1815 354C1814 367 1822 373 1828 375L1848 377C1871.29 379.354 1894.78 379.019 1918 376C1958 371 1981 358 1996 332C2004 318 2002 292 1992 281ZM1915 541C1884 542 1857 533 1835 514C1803 486 1802 437 1839 412C1884 381 1951 390 1984 430C2009 458 2006 500 1972 523C1955.46 535.042 1935.45 541.362 1915 541ZM1904 449C1895 450 1885 450 1877 456C1870 461 1870 469 1877 474C1891 483 1905 488 1923 483C1935 480 1939 467 1930 458C1923 450 1914 449 1904 449ZM2614 372C2616 504 2611 616 2597 738C2590 800 2558 821 2502 828H2475C2423 820 2408 802 2408 748C2407 709 2409 664 2409 623C2409 602 2406 583 2381 579C2355 575 2335 585 2329 611C2320 652 2326 693 2321 733C2315 773 2297 796 2257 804L2218 807C2176 807 2149 788 2139 746C2130 703 2125 656 2124 611C2121 500 2121 384 2129 275C2134 187 2169 115 2264 118C2311 119 2337 173 2340 217C2343 264 2341 317 2341 365C2340 392 2347 411 2376 412C2409 413 2429 398 2429 365C2429 313 2422 270 2433 219C2454 124 2578 115 2605 201C2623 259 2613 328 2614 372ZM1904 114C1883 104 1856 105 1838 118C1803 143 1806 209 1824 222C1832 228 1842 230 1854 230L1971 233C1999 233 2004 227 2000 205L1999 202C1996 193 1989 189 1978 189L1960 187C1957 186 1951 184 1951 181C1950 178 1952 173 1955 171L1971 163C1986 157 1997 149 1996 133C1995 117 1986 112 1967 117L1937 128C1931 131 1927 131 1922 126L1904 114ZM1900 174C1900 181 1894 181 1888 181C1882 181 1876 180 1876 173C1876 167 1882 166 1885 166C1894 165 1900 167 1900 174ZM3345 540V607C3342 665 3346 739 3307 785C3272 828 3197 807 3168 768C3141 730 3143 678 3144 633C3144 589 3145 544 3149 499C3152 462 3155 404 3175 372C3202 330 3289 327 3325 367C3336 380 3338 398 3340 415C3343 456 3345 498 3345 540ZM3334 227C3338 302 3295 303 3257 304C3214 304 3169 312 3169 221C3168 154 3209 146 3232 143C3294 140 3331 155 3334 227ZM3848 672C3830 641 3785 589 3769 555C3747 510 3777 481 3792 441C3797 428 3812 378 3807 329C3801 277 3766 221 3727 188C3685 152 3631 140 3573 143C3525 145 3463 157 3425 193C3420 197 3415 203 3412 209C3397 232 3391 260 3390 291L3388 306C3385 418 3390 583 3392 703C3392 744 3393 775 3415 802C3438 829 3476 821 3504 808C3540 791 3548 750 3550 715C3551 695 3549 679 3553 661C3556 649 3561 631 3571 627C3587 622 3600 629 3611 639C3626 653 3636 672 3648 690C3680 740 3725 826 3800 811C3876 797 3884 735 3848 672ZM3571 425C3545 430 3545 410 3543 391C3541 372 3548 352 3568 347C3589 342 3595 363 3596 373C3600 398 3596 420 3571 425ZM981 163L969 159L961 158C957.063 157.481 953.065 158.278 949.629 160.268C946.192 162.257 943.51 165.327 942 169V176C943 184 948 190 954 193L962 197L980 203H992C1004 199 1013 179 1002 170C1000 167 991 165 981 163ZM1012 118L1007 116C997.035 114.131 987.033 112.464 977 111C972 110 966 111 962 113C958 115 954 118 953 123C952 127 954 131 955 134C957 138 958 141 961 143C966 148 974 150 981 151L983 152L996 156L1005 157C1008 156 1011 156 1013 154C1017.01 149.774 1019.49 144.322 1020.04 138.519C1020.58 132.716 1019.16 126.898 1016 122L1012 118ZM975 215C971 212 953 207 952 207C945 205 938 202 929 202C916 203 909 215 915 225V226C916 227 923 243 951 242C959 242 961 241 965 240C971 239 977 236 978 231C979 226 980 217 975 215Z" fill="#353635"/>
<path d="M1082 61.9999C1066 61.9999 998 63.9999 962 66.9999C950 86.9999 936 109 913 121C911 121 902 126 892 115C885 106 888 95.9999 891 86.9999C892 80.9999 896 73.9999 896 72.9999C897 72.9999 897 69.9999 899 69.9999H903C904 70.9999 905 72.9999 904 74.9999L899 86.9999V87.9999C897 93.9999 895 102 899 109C901 111 903 112 907 112C921 113 940 82.9999 952 60.9999C957 48.9999 958 41.9999 953 34.9999C951 30.9999 946 27.9999 940 27.9999C927 26.9999 916 31.9999 903 38.9999C890 44.9999 874 52.9999 851 57.9999C832 61.9999 808 61.9999 785 58.9999C773 57.9999 733 51.9999 722 47.9999C722 47.9999 511 -3.00009 412 -9.44734e-05C329 2.99991 244 23.9999 176 72.9999C143.099 99.3916 117.409 133.679 101.323 172.669C85.2376 211.66 79.2782 254.087 84 296C98 408 189 496 287 554C308 567 331 580 346 600C361 620 366 650 350 669C331 692 294 688 267 675C211 650 163 597 101 598C45 599 -5.00005 654 -4.65214e-05 711C4.99995 766 53 807 100 835C193 890 308 921 410 884C482 858 542 797 565 723C588 649 583 562 534 502C485 442 397 414 341 359C317 336 296 307 297 274C297 221 343 191 395 180C463 165 631 188 631 188C716 197 800 207 833 214C856.943 219.252 880.634 225.592 904 233C905 233 914 237 910 233C910 232 900 220 904 207C904 207 911 192 930 193L942 195C938 192 927 176 931 163C931 163 937 150 953 149C950 147 941 134 944 121C944 121 946 106 963 104C976.454 103.495 989.913 104.841 1003 108C1043 106 1073 102 1082 99.9999C1099 96.9999 1108 89.9999 1107 77.9999C1106 64.9999 1098 62.9999 1082 61.9999Z" fill="#353635"/>
</g>
<defs>
<clipPath id="clip0_70_3138">
<rect width="3868.7" height="900" fill="white"/>
</clipPath>
</defs>
</svg>
